<svg width="13" height="13" viewBox="0 0 13 13" fill="none" xmlns="http://www.w3.org/2000/svg">
<path d="M6.82359 1.15818L8.18704 3.89805C8.25389 4.03576 8.38546 4.13203 8.53855 4.15524L11.5903 4.59614C11.7142 4.61303 11.826 4.67797 11.9011 4.77654C11.9761 4.87511 12.008 4.99913 11.9898 5.12102C11.9744 5.22122 11.9257 5.31355 11.8513 5.38346L9.64103 7.52497C9.52932 7.63051 9.47924 7.7845 9.50788 7.93438L10.0405 10.9524C10.079 11.2011 9.90854 11.4345 9.65701 11.4773C9.55329 11.4933 9.44709 11.4768 9.35343 11.4301L6.63186 10.0077C6.4959 9.93388 6.33108 9.93388 6.19513 10.0077L3.45758 11.4406C3.2279 11.5567 2.94614 11.4704 2.82379 11.2464C2.77608 11.156 2.75927 11.0529 2.77585 10.9524L3.30845 7.93438C3.33421 7.78469 3.28456 7.63201 3.1753 7.52497L0.949047 5.38346C0.766984 5.20156 0.766984 4.90926 0.949047 4.72736C1.02335 4.65956 1.11573 4.61404 1.21535 4.59614L4.26713 4.15524C4.4195 4.13033 4.55036 4.03459 4.61864 3.89805L5.98209 1.15818C6.03596 1.04708 6.13308 0.962139 6.2514 0.92261C6.36973 0.883081 6.49924 0.892318 6.61055 0.948227C6.70239 0.994129 6.77701 1.06767 6.82359 1.15818Z" fill="#FFD803" stroke="#FFFFFE" stroke-width="1.32422" stroke-linecap="round" stroke-linejoin="round"/>
</svg>
